<svg xmlns="http://www.w3.org/2000/svg" width="24" height="24" viewBox="0 -960 960 960" aria-hidden="true">
  <circle cx="480" cy="-480" r="455" fill="#FFFFFF"/>
  <circle cx="480" cy="-480" r="454" fill="none" stroke="rgba(31,31,31,0.30)" stroke-width="20"/>
  <path fill="#1F1F1F" d="M423.5-743.5Q400-767 400-800t23.5-56.5Q447-880 480-880t56.5 23.5Q560-833 560-800t-23.5 56.5Q513-720 480-720t-56.5-23.5ZM360-80v-520q-60-5-122-15t-118-25l20-80q78 21 166 30.5t174 9.5q86 0 174-9.5T820-720l20 80q-56 15-118 25t-122 15v520h-80v-240h-80v240h-80Z"/>
</svg>
